<?xml version="1.0" standalone="no"?>
<!DOCTYPE svg PUBLIC "-//W3C//DTD SVG 20010904//EN"
 "http://www.w3.org/TR/2001/REC-SVG-20010904/DTD/svg10.dtd">
<svg version="1.0" xmlns="http://www.w3.org/2000/svg"
 width="206.000000pt" height="206.000000pt" viewBox="0 0 206.000000 206.000000"
 preserveAspectRatio="xMidYMid meet">
<metadata>
Created by potrace 1.14, written by Peter Selinger 2001-2017
</metadata>
<g transform="translate(0.000000,206.000000) scale(0.100000,-0.100000)"
fill="#000000" stroke="none">
<path d="M1700 1699 c-137 -18 -366 -71 -453 -106 -186 -75 -395 -246 -501
-410 -65 -101 -149 -276 -185 -383 -38 -115 -77 -304 -86 -420 -4 -47 -13
-141 -21 -210 -18 -164 -18 -170 5 -170 16 0 21 9 25 43 9 65 25 219 36 346
12 124 36 248 76 381 29 94 135 313 196 403 86 127 226 253 368 330 105 58
190 85 381 123 157 31 200 35 349 37 169 2 170 2 170 25 0 22 -1 22 -147 21
-82 -1 -177 -5 -213 -10z"/>
<path d="M1012 1084 c-59 -41 -94 -181 -54 -217 39 -35 66 -16 105 73 36 82
40 108 22 136 -18 28 -41 30 -73 8z"/>
<path d="M1612 1037 c-47 -50 -69 -157 -43 -206 16 -29 56 -37 85 -18 30 20
67 96 74 152 4 37 1 47 -21 69 -32 32 -67 33 -95 3z"/>
<path d="M1032 483 c-26 -5 -40 -29 -25 -44 16 -16 412 -50 603 -52 150 -2
175 0 175 13 0 12 -19 17 -85 23 -140 12 -390 37 -475 48 -108 13 -165 17
-193 12z"/>
</g>
</svg>
